<?xml version="1.0" standalone="no"?>
<!DOCTYPE svg PUBLIC "-//W3C//DTD SVG 20010904//EN"
 "http://www.w3.org/TR/2001/REC-SVG-20010904/DTD/svg10.dtd">
<svg version="1.0" xmlns="http://www.w3.org/2000/svg"
 width="2752.000000pt" height="2752.000000pt" viewBox="0 0 2752.000000 2752.000000"
 preserveAspectRatio="xMidYMid meet">
<metadata>
Created by potrace 1.14, written by Peter Selinger 2001-2017
</metadata>
<g transform="translate(0.000000,2752.000000) scale(0.100000,-0.100000)"
fill="#000000" stroke="none">
<path d="M12877 27514 c-1 -1 -153 -5 -337 -9 -184 -3 -396 -8 -470 -10 -446
-15 -553 -19 -995 -40 -128 -6 -384 -22 -500 -30 -38 -3 -106 -7 -150 -10 -44
-3 -109 -7 -145 -10 -36 -4 -94 -8 -130 -10 -63 -4 -160 -12 -250 -20 -25 -3
-74 -7 -110 -10 -36 -3 -81 -7 -100 -10 -19 -2 -69 -7 -110 -10 -41 -3 -91 -8
-110 -10 -19 -2 -57 -6 -85 -9 -27 -4 -75 -8 -105 -11 -30 -3 -71 -7 -90 -10
-19 -2 -60 -7 -90 -10 -30 -4 -66 -8 -80 -10 -14 -2 -54 -7 -90 -10 -36 -4
-67 -8 -70 -10 -3 -1 -36 -6 -75 -9 -38 -4 -77 -9 -85 -11 -8 -2 -37 -6 -65
-10 -83 -9 -200 -25 -225 -30 -13 -2 -60 -9 -104 -16 -45 -6 -160 -24 -256
-40 -96 -16 -188 -32 -205 -35 -16 -2 -56 -9 -87 -15 -32 -5 -70 -12 -85 -15
-59 -10 -340 -65 -378 -74 -43 -10 -360 -80 -385 -85 -8 -2 -89 -22 -180 -45
-91 -23 -173 -43 -183 -45 -139 -29 -808 -237 -1027 -320 -25 -9 -61 -23 -80
-30 -19 -7 -62 -23 -95 -36 -83 -31 -394 -158 -414 -169 -9 -5 -38 -19 -66
-31 -125 -54 -372 -174 -505 -246 -41 -22 -95 -51 -120 -64 -25 -13 -56 -30
-70 -40 -14 -9 -81 -50 -150 -90 -224 -132 -680 -449 -805 -560 -11 -10 -42
-37 -70 -60 -340 -284 -658 -610 -925 -949 -28 -36 -56 -72 -63 -80 -62 -78
-277 -382 -312 -441 -5 -10 -50 -82 -99 -161 -341 -548 -668 -1280 -883 -1973
-71 -229 -111 -360 -118 -392 -2 -10 -16 -61 -31 -113 -14 -52 -28 -102 -30
-110 -36 -144 -65 -259 -69 -275 -2 -11 -9 -40 -16 -65 -6 -25 -12 -52 -14
-60 -2 -8 -20 -89 -40 -180 -36 -163 -91 -432 -101 -500 -3 -19 -10 -54 -15
-77 -10 -48 -75 -424 -84 -493 -3 -25 -12 -85 -20 -135 -8 -49 -17 -110 -20
-135 -3 -25 -8 -56 -10 -70 -2 -14 -7 -47 -10 -75 -3 -27 -7 -61 -10 -75 -5
-31 -13 -89 -20 -155 -4 -27 -9 -63 -11 -80 -3 -16 -7 -50 -9 -75 -2 -25 -6
-61 -9 -80 -2 -19 -7 -66 -11 -105 -4 -38 -9 -77 -10 -86 -2 -9 -6 -52 -10
-95 -4 -43 -9 -88 -11 -99 -2 -11 -6 -54 -10 -95 -3 -41 -7 -86 -9 -100 -2
-14 -7 -61 -10 -105 -8 -99 -13 -162 -20 -240 -8 -84 -14 -168 -20 -255 -3
-41 -7 -102 -10 -135 -13 -163 -23 -339 -50 -845 -13 -263 -29 -729 -41 -1225
-10 -399 -10 -2222 0 -2600 9 -380 22 -783 31 -975 2 -41 6 -138 9 -215 4 -77
8 -176 11 -220 3 -44 7 -123 10 -175 7 -126 11 -194 31 -482 3 -46 7 -108 10
-138 3 -30 7 -86 9 -125 3 -38 7 -90 9 -115 2 -25 7 -81 11 -125 4 -44 8 -93
10 -110 1 -16 6 -64 9 -105 4 -41 9 -91 11 -110 2 -19 7 -64 10 -100 4 -36 8
-78 10 -95 2 -16 6 -61 10 -100 4 -38 8 -81 10 -95 2 -14 6 -50 10 -80 13
-113 16 -136 20 -160 2 -14 7 -52 10 -85 3 -33 8 -71 10 -85 5 -32 25 -176 30
-215 10 -81 17 -132 21 -155 2 -14 8 -52 13 -85 35 -230 42 -272 45 -290 2
-11 7 -40 11 -65 4 -25 9 -54 11 -65 3 -11 7 -35 10 -54 3 -18 8 -43 10 -55 2
-11 8 -46 14 -76 11 -61 9 -52 46 -240 29 -153 29 -149 43 -210 5 -25 12 -57
15 -72 3 -16 8 -38 11 -50 3 -13 7 -32 9 -43 2 -11 12 -51 21 -90 9 -38 18
-77 20 -85 2 -8 11 -46 20 -85 9 -38 18 -77 20 -85 39 -179 193 -707 285 -980
77 -230 208 -575 271 -717 11 -26 25 -57 29 -68 44 -107 209 -450 288 -600
153 -287 324 -564 513 -830 71 -100 258 -345 284 -371 5 -6 30 -35 55 -65 133
-159 393 -430 546 -569 131 -119 153 -138 265 -230 206 -169 316 -252 524
-392 460 -311 931 -558 1515 -795 74 -30 167 -66 205 -80 39 -14 93 -34 120
-43 72 -26 377 -131 395 -135 8 -3 67 -21 130 -40 63 -20 138 -42 165 -50 77
-22 198 -56 215 -60 40 -11 297 -77 310 -80 8 -2 71 -17 140 -34 128 -31 144
-35 315 -71 178 -38 279 -59 320 -66 22 -4 42 -8 45 -9 3 -1 25 -5 50 -9 25
-4 77 -14 115 -21 39 -7 86 -16 105 -19 19 -3 62 -10 95 -16 33 -6 76 -13 95
-16 19 -3 46 -7 60 -10 14 -2 72 -11 130 -19 58 -9 128 -20 155 -25 28 -5 73
-12 100 -15 28 -3 82 -10 120 -16 69 -9 110 -15 190 -25 22 -3 51 -7 65 -9 14
-2 54 -7 90 -10 36 -4 72 -8 80 -10 8 -2 44 -6 80 -10 36 -3 76 -8 90 -10 14
-2 54 -6 90 -10 36 -3 81 -8 100 -10 19 -2 64 -7 100 -10 36 -4 81 -8 100 -10
19 -2 64 -7 100 -10 36 -3 85 -8 110 -10 25 -2 74 -6 110 -10 36 -3 90 -7 120
-10 30 -3 89 -7 130 -10 41 -3 100 -7 130 -10 30 -3 91 -7 135 -10 44 -3 112
-7 150 -10 97 -7 222 -14 340 -20 55 -3 136 -7 180 -10 201 -12 528 -25 995
-40 826 -26 2535 -26 3365 0 271 8 652 23 785 30 47 2 139 7 205 10 66 3 154
8 195 10 41 3 113 7 160 10 47 3 117 7 155 10 39 3 106 7 150 10 44 3 109 7
145 10 77 7 134 11 250 20 47 3 105 8 130 10 132 13 179 17 215 20 22 2 71 6
110 10 38 3 86 8 105 10 19 2 58 7 85 10 96 9 225 24 275 30 19 2 58 7 85 10
90 10 140 16 165 20 14 3 52 7 85 11 33 3 68 8 79 10 10 2 44 6 75 9 31 4 63
8 71 10 8 2 33 6 55 9 104 14 252 36 270 40 11 2 40 7 65 10 25 3 54 8 65 10
11 2 81 14 155 26 74 11 153 25 175 30 22 5 56 12 75 15 19 3 60 10 90 16 30
6 66 12 80 15 14 2 36 7 50 10 14 3 36 8 50 10 14 3 99 21 190 40 91 20 177
38 191 40 14 3 61 14 105 25 43 11 91 22 105 25 14 2 111 27 215 55 104 27
199 52 211 54 47 11 406 119 553 167 162 53 585 207 657 239 23 11 44 19 47
19 3 0 35 14 71 30 36 17 68 30 70 30 3 0 38 16 79 35 41 19 78 35 81 35 12 0
438 213 565 282 291 160 572 340 830 531 118 88 286 220 300 237 3 3 18 16 34
28 118 91 442 403 608 587 475 525 859 1113 1193 1825 216 463 473 1180 600
1675 84 329 116 455 121 480 3 17 16 75 29 130 19 82 42 188 80 375 2 8 6 26
9 40 3 14 8 36 10 50 4 28 23 132 31 170 4 22 9 46 30 165 16 95 35 205 40
240 3 23 8 52 10 65 3 14 7 41 10 60 7 56 15 113 20 140 3 14 7 42 10 63 9 69
15 112 20 142 3 17 7 46 9 65 9 72 18 136 22 160 2 14 6 50 10 80 3 30 7 66
10 80 2 14 7 54 10 88 3 35 7 72 9 82 2 10 6 47 10 82 3 35 8 77 10 93 2 17 6
62 10 100 4 39 8 81 10 95 2 14 6 59 10 100 3 41 8 98 12 125 5 52 7 76 18
210 3 44 8 96 10 115 3 19 7 78 10 130 3 52 7 111 10 130 2 19 7 82 10 140 3
58 8 132 10 165 3 33 7 103 10 155 3 52 8 131 10 175 3 44 8 121 10 170 2 50
6 142 10 205 9 180 17 405 30 835 24 770 24 2392 0 3230 -9 308 -23 705 -30
815 -2 47 -7 144 -10 215 -3 72 -8 157 -10 190 -3 33 -7 107 -10 165 -3 58 -7
130 -10 160 -2 30 -7 102 -10 160 -4 58 -8 121 -10 140 -2 19 -6 78 -10 130
-3 52 -8 111 -10 130 -2 19 -7 71 -10 115 -4 44 -8 103 -11 130 -3 28 -7 75
-9 105 -5 59 -19 192 -41 400 -3 25 -7 61 -9 80 -2 19 -7 60 -10 90 -7 63 -10
93 -25 210 -6 47 -13 101 -15 120 -6 52 -16 122 -20 150 -2 14 -9 63 -15 110
-6 47 -13 96 -15 110 -2 14 -11 72 -20 130 -9 58 -18 116 -20 130 -2 14 -13
81 -24 150 -12 69 -23 139 -26 155 -3 17 -19 102 -35 190 -17 88 -32 171 -35
185 -3 14 -8 36 -10 50 -10 61 -56 275 -75 356 -12 49 -24 102 -27 118 -4 23
-46 197 -87 356 -2 8 -12 44 -21 80 -20 79 -92 335 -104 370 -5 14 -23 72 -41
130 -63 208 -231 689 -274 785 -8 17 -18 41 -24 55 -138 337 -320 718 -467
975 -15 28 -35 63 -44 78 -18 32 -17 31 -90 152 -126 209 -420 625 -533 757
-13 15 -41 48 -63 75 -132 158 -274 311 -450 482 -174 170 -264 249 -520 459
-58 48 -343 253 -425 307 -109 71 -177 115 -202 130 -10 5 -64 38 -120 72
-172 103 -333 190 -554 299 -116 57 -214 104 -217 104 -3 0 -38 15 -79 34
-450 209 -1144 444 -1803 610 -167 42 -336 81 -395 92 -14 3 -41 9 -60 14 -33
8 -166 36 -220 46 -14 3 -83 17 -155 31 -71 14 -139 27 -150 29 -11 1 -45 7
-75 13 -30 5 -68 12 -85 15 -34 5 -207 34 -245 41 -14 2 -43 7 -65 10 -22 3
-65 10 -95 15 -50 8 -75 12 -165 25 -16 3 -97 14 -180 25 -82 11 -163 23 -180
25 -16 2 -57 7 -90 10 -33 4 -73 8 -90 11 -16 2 -68 9 -115 14 -47 5 -103 12
-125 15 -59 7 -176 19 -285 30 -30 3 -77 8 -105 10 -27 3 -70 7 -95 10 -95 9
-167 16 -234 20 -37 3 -84 7 -105 10 -20 2 -76 7 -126 10 -49 3 -110 7 -135
10 -25 2 -90 7 -145 10 -55 4 -120 8 -145 10 -25 2 -94 6 -155 10 -60 3 -137
8 -170 10 -104 6 -306 17 -405 21 -52 2 -151 6 -220 9 -69 3 -190 7 -270 10
-80 2 -217 7 -305 10 -392 13 -701 17 -1593 19 -524 1 -954 1 -955 0z"/>
</g>
</svg>
