<svg id="Calque_1" data-name="Calque 1" xmlns="http://www.w3.org/2000/svg" xmlns:xlink="http://www.w3.org/1999/xlink" viewBox="0 0 1357.13 324.45"><defs><style>.cls-1{fill:#fff;}.cls-2{fill:url(#Dégradé_sans_nom_1271);}.cls-3{fill:url(#Dégradé_sans_nom_1271-2);}.cls-4{fill:url(#Dégradé_sans_nom_1271-3);}.cls-5{fill:url(#Dégradé_sans_nom_1271-4);}</style><linearGradient id="Dégradé_sans_nom_1271" x1="167.1" y1="457.95" x2="165.9" y2="249.72" gradientUnits="userSpaceOnUse"><stop offset="0" stop-color="#ebaaff"/><stop offset="0.11" stop-color="#d0a7ff"/><stop offset="0.34" stop-color="#8d9fff"/><stop offset="0.68" stop-color="#40d7ff"/><stop offset="1" stop-color="#5fffff"/></linearGradient><linearGradient id="Dégradé_sans_nom_1271-2" x1="169.13" y1="457.2" x2="166.35" y2="249.93" xlink:href="#Dégradé_sans_nom_1271"/><linearGradient id="Dégradé_sans_nom_1271-3" x1="189.9" y1="265.02" x2="188.77" y2="55.42" xlink:href="#Dégradé_sans_nom_1271"/><linearGradient id="Dégradé_sans_nom_1271-4" x1="132.46" y1="264.02" x2="133" y2="56.75" xlink:href="#Dégradé_sans_nom_1271"/></defs><circle class="cls-1" cx="162.22" cy="162.22" r="162.22"/><path class="cls-2" d="M211.16,329H128.8a9.36,9.36,0,0,0,0,18.72h82.07c22.34,0,40.44,19.12,40.44,42.66s-18,42.49-40.23,42.66H72.86a9.65,9.65,0,0,0,0,19.29h138.3c32.78,0,59.35-27.61,59.35-61.67S243.94,329,211.16,329Z" transform="translate(-5.26 -193.45)"/><path class="cls-3" d="M122.66,382.53H205a9.36,9.36,0,0,0,0-18.72H122.94c-22.34,0-40.43-19.13-40.43-42.66s18-42.49,40.22-42.66H261a9.65,9.65,0,1,0,0-19.29H122.66c-32.78,0-59.35,27.61-59.35,61.66S89.88,382.53,122.66,382.53Z" transform="translate(-5.26 -193.45)"/><rect class="cls-4" x="132.59" y="99.54" width="112.95" height="19.16" rx="9.58"/><rect class="cls-5" x="76.11" y="204.74" width="112.95" height="19.16" rx="9.58"/><path class="cls-1" d="M540,442.17a144.53,144.53,0,0,1-20-1.43,149.52,149.52,0,0,1-19.61-4,99.64,99.64,0,0,1-16.76-6.18q-6.42-3.09-9-8.32a18.44,18.44,0,0,1-1.9-10.81,20.57,20.57,0,0,1,4-10,16.27,16.27,0,0,1,8.8-5.94Q491,393.92,497.9,397a95,95,0,0,0,20.44,6.77,101.52,101.52,0,0,0,21.63,2.5q15.45,0,21.75-4.4c4.19-2.93,6.3-6.38,6.3-10.34a10.53,10.53,0,0,0-4.4-8.8q-4.41-3.32-15.57-5.7l-27.81-5.94q-23.06-5-34.11-16.76T475.08,323.8a47.93,47.93,0,0,1,5.23-22.59,51.49,51.49,0,0,1,14.5-17.11,70.26,70.26,0,0,1,22.34-11.17,97.13,97.13,0,0,1,28.76-4A114.46,114.46,0,0,1,571,271.74a75.8,75.8,0,0,1,22,8.32,17.64,17.64,0,0,1,8,8,18.53,18.53,0,0,1,1.9,10.34,17.93,17.93,0,0,1-3.8,9.27,15.17,15.17,0,0,1-8.56,5.35q-5.36,1.31-12.72-1.78a75.6,75.6,0,0,0-15.69-4.76,87.79,87.79,0,0,0-16.64-1.66,45.92,45.92,0,0,0-15,2.14,21,21,0,0,0-9.39,5.94,13.25,13.25,0,0,0-3.21,8.8,10.46,10.46,0,0,0,4.28,8.43q4.27,3.45,15.21,5.59l27.58,5.94q23,5,34.46,16.52T610.8,388a48.53,48.53,0,0,1-5,22.23,50,50,0,0,1-14.38,17.11,67.06,67.06,0,0,1-22.34,11.06A103.56,103.56,0,0,1,540,442.17Z" transform="translate(-5.26 -193.45)"/><path class="cls-1" d="M650.49,441.69q-10.46,0-15.8-5.58t-5.35-15.81V290.76q0-10.23,5.35-15.81t15.8-5.59q10,0,15.57,5.59t5.59,15.81V369.2h.47l29-34.95a59.32,59.32,0,0,1,11.06-10.69q5.1-3.57,13.9-3.57t13.55,4.4a15,15,0,0,1,5,10.82q.24,6.41-5,13.07l-31.38,37.08v-15l35,44.22q5.22,6.64,4.27,12.95a15.3,15.3,0,0,1-6.06,10.22q-5.11,3.93-12.95,3.92-9.51,0-15.21-3.44t-11.18-11.06l-30-36.6h-.47V420.3Q671.65,441.69,650.49,441.69Z" transform="translate(-5.26 -193.45)"/><path class="cls-1" d="M801,484.48a17.27,17.27,0,0,1-11.53-3.92,16.51,16.51,0,0,1-5.7-10.1,22.35,22.35,0,0,1,2-13.08l15.93-34.46V440L761,347.09q-3.09-7.36-2-13.43a15.05,15.05,0,0,1,6.3-9.86q5.22-3.81,14.26-3.81,7.61,0,12.12,3.57t8.56,13.55L824,398.91h-8.08l25.19-62q3.81-9.75,8.68-13.31T863,320q7.14,0,11.41,3.81a16.61,16.61,0,0,1,5.35,9.86q1.07,6.06-2.5,13.43L823.53,468.32q-4,9.27-9.38,12.71A23.88,23.88,0,0,1,801,484.48Z" transform="translate(-5.26 -193.45)"/><path class="cls-1" d="M940.24,442.17q-23.06,0-33.75-12.36t-10.7-37.08v-102q0-10.23,5.35-15.81T917,269.36q10,0,15.56,5.59t5.59,15.81V391.3c0,5.87,1.15,10.14,3.45,12.84a11.16,11.16,0,0,0,8.91,4,17.44,17.44,0,0,0,3.45-.36,18.52,18.52,0,0,1,3.68-.36q4.27-.22,6.3,2.86t2,12.6q0,8.31-3.33,12.36t-10,5.46q-2.15.24-5.71.83A40.12,40.12,0,0,1,940.24,442.17Z" transform="translate(-5.26 -193.45)"/><path class="cls-1" d="M1042.21,442.17q-21.39,0-37-7.61a55.58,55.58,0,0,1-23.89-21.39Q973,399.39,973,380.84q0-18.06,8-31.85a57.37,57.37,0,0,1,21.87-21.63q13.9-7.85,31.73-7.84a63.31,63.31,0,0,1,23.77,4.28A50.12,50.12,0,0,1,1076.56,336a54.71,54.71,0,0,1,11.52,19.13,73.61,73.61,0,0,1,4.05,25.2c0,3-.88,5.31-2.62,6.89s-4.44,2.38-8.08,2.38h-73V369.43H1061l-3.57,3.09q0-8.79-2.38-14.38a17.06,17.06,0,0,0-7-8.32,22.39,22.39,0,0,0-11.53-2.73,23.52,23.52,0,0,0-12.83,3.45,20.87,20.87,0,0,0-8.2,10.1q-2.73,6.66-2.73,16.64v1.9q0,17.11,7.48,24.24t23.18,7.13a70.51,70.51,0,0,0,12-1.18,69,69,0,0,0,13-3.57q6.18-2.37,10.69-.83a13.64,13.64,0,0,1,7,5.11,16.5,16.5,0,0,1,2.86,8.44,15.6,15.6,0,0,1-2.14,9.15,16.41,16.41,0,0,1-8.2,6.66,81.47,81.47,0,0,1-17.47,5.82A90.13,90.13,0,0,1,1042.21,442.17Z" transform="translate(-5.26 -193.45)"/><path class="cls-1" d="M1174.13,442.17q-21.39,0-37-7.61a55.64,55.64,0,0,1-23.89-21.39q-8.33-13.79-8.32-32.33,0-18.06,8-31.85a57.37,57.37,0,0,1,21.87-21.63q13.9-7.85,31.73-7.84a63.31,63.31,0,0,1,23.77,4.28A50.12,50.12,0,0,1,1208.48,336,54.88,54.88,0,0,1,1220,355.17a73.85,73.85,0,0,1,4,25.2c0,3-.88,5.31-2.62,6.89s-4.44,2.38-8.08,2.38h-73V369.43h52.53l-3.57,3.09q0-8.79-2.37-14.38a17.13,17.13,0,0,0-7-8.32,22.38,22.38,0,0,0-11.52-2.73,23.53,23.53,0,0,0-12.84,3.45,20.87,20.87,0,0,0-8.2,10.1q-2.73,6.66-2.73,16.64v1.9q0,17.11,7.48,24.24t23.18,7.13a70.51,70.51,0,0,0,12-1.18,69,69,0,0,0,13-3.57q6.18-2.37,10.69-.83a13.71,13.71,0,0,1,7,5.11,16.58,16.58,0,0,1,2.85,8.44,15.53,15.53,0,0,1-2.14,9.15,16.36,16.36,0,0,1-8.2,6.66,81.29,81.29,0,0,1-17.47,5.82A90.06,90.06,0,0,1,1174.13,442.17Z" transform="translate(-5.26 -193.45)"/><path class="cls-1" d="M1263.5,441.69q-10.45,0-15.8-5.58t-5.35-15.81V341.39q0-10.23,5.35-15.81T1263,320q9.73,0,15.09,5.59t5.35,15.81v11.17l-2.62-9.75a40.72,40.72,0,0,1,16.29-17.23,47.64,47.64,0,0,1,24.12-6.06q14,0,23.06,5.58t13.55,16.64q4.52,11.06,4.51,28.41V420.3q0,10.23-5.46,15.81t-15.69,5.58q-10.23,0-15.69-5.58t-5.47-15.81V371.81q0-10.46-3.68-15.09t-10.81-4.64q-9.51,0-15.22,6.06t-5.7,16.28V420.3Q1284.66,441.69,1263.5,441.69Z" transform="translate(-5.26 -193.45)"/></svg>