<svg id="Calque_1" data-name="Calque 1" xmlns="http://www.w3.org/2000/svg" xmlns:xlink="http://www.w3.org/1999/xlink" viewBox="0 0 1366.39625 726.99967"><defs><style>.cls-1{fill:url(#Dégradé_sans_nom_104);}.cls-2{fill:url(#Dégradé_sans_nom_133);}.cls-3{fill:url(#Dégradé_sans_nom_65);}.cls-4{fill:url(#Dégradé_sans_nom_52);}</style><linearGradient id="Dégradé_sans_nom_104" x1="467.58965" y1="1188.00092" x2="1123.9888" y2="51.08424" gradientUnits="userSpaceOnUse"><stop offset="0" stop-color="#004ca3"/><stop offset="0.11685" stop-color="#004491"/><stop offset="0.33414" stop-color="#003775"/><stop offset="0.55366" stop-color="#002d62"/><stop offset="0.7748" stop-color="#002856"/><stop offset="1" stop-color="#002652"/></linearGradient><linearGradient id="Dégradé_sans_nom_133" x1="587.71157" y1="867.92221" x2="623.8177" y2="663.15413" gradientUnits="userSpaceOnUse"><stop offset="0" stop-color="#0056b8"/><stop offset="0.22089" stop-color="#0050ac"/><stop offset="0.69079" stop-color="#004797"/><stop offset="1" stop-color="#00438f"/></linearGradient><linearGradient id="Dégradé_sans_nom_65" x1="682.95721" y1="884.0604" x2="682.95721" y2="190.92385" gradientUnits="userSpaceOnUse"><stop offset="0" stop-color="#00397a"/><stop offset="0.07707" stop-color="#03468b"/><stop offset="0.25987" stop-color="#0a61af"/><stop offset="0.44442" stop-color="#1076cb"/><stop offset="0.62911" stop-color="#1485df"/><stop offset="0.81411" stop-color="#168eeb"/><stop offset="1" stop-color="#1791ef"/></linearGradient><linearGradient id="Dégradé_sans_nom_52" x1="516.01206" y1="711.65756" x2="954.01398" y2="-46.98403" gradientUnits="userSpaceOnUse"><stop offset="0" stop-color="#005fcc"/><stop offset="0.18487" stop-color="#004faa"/><stop offset="0.42786" stop-color="#003d84"/><stop offset="0.65274" stop-color="#003169"/><stop offset="0.85054" stop-color="#002958"/><stop offset="1" stop-color="#002652"/></linearGradient></defs><path class="cls-1" d="M1365.80188,651.9259c-.03064-.01309-.06165-.02537-.09229-.03846l-.10583,211.2549c-26.5105-18.51453-84.63977-42.01939-139.50549-61.94955-185.89624-34.28042-456.85425,10.014-456.85425,10.014C629.19727,842.36972,433.80939,819.554,433.80939,819.554,190.04669,780.81738-.19812,761.95826-.19812,761.95826V917.92352s186.865-41.68173,373.01941-28.937c0,0,128.9508,8.593,254.11713-13.35552,134.32385-23.55437,397.55218-56.76109,461.9284-57.874,64.37647-1.113,144.68689-4.45188,277.3313,50.08321V190.92385h-.08154Z" transform="translate(0.19813 -190.92385)"/><path class="cls-2" d="M740.246,693.86132c-152.69471-1.4583-269.9289,10.66886-343.90522,1.88272C329.42529,687.79655,272.6704,654.32373,177.8,631.73086c-92.26422-21.97229-173.59845,7.69237-177.99817,9.339v123.188s129.0376,14.42593,310.73636,43.91939a1686.94171,1686.94171,0,0,0,399.41913,17.33713c11.3464-.86969,22.70505-1.85673,34.00235-2.97448,13.83092-1.36843,27.61488-3.24411,41.354-5.48,60.87566-9.907,281.89934-41.59757,440.78458-8.55464-63.86707-26.164-123.31189-46.86524-123.31189-46.86524S889.93725,695.29093,740.246,693.86132Z" transform="translate(0.19813 -190.92385)"/><path class="cls-3" d="M1365.80188,648.90424c-125.13477-59.7222-276.37024-39.19267-276.37024-39.19267s-238.87012,61.58849-472.6579-57.856C382.986,432.41129,232.20984,391.35225,144.11584,385.75328c-88.09393-5.59891-144.314,24.26219-144.314,24.26219V648.90424s83.32587-31.72747,178.19629-9.33158c94.87036,22.39576,151.62524,55.57663,218.54071,63.4548,73.97632,8.70949,191.21051-3.31185,343.90521-1.86631,149.69129,1.41713,362.54041,67.18747,362.54041,67.18747s205.44714,70.92014,262.81738,115.71178l.31067-693.13655h-.031Z" transform="translate(0.19813 -190.92385)"/><path class="cls-4" d="M-.19812,413.62347s56.22-30.12387,144.314-24.47566,238.87012,47.06853,472.6579,167.564c195.432,100.7267,394.41541,73.83592,454.44647,62.3012a398.81767,398.81767,0,0,1,64.49305-7.14471c54.4635-1.47064,147.90515,3.17781,230.08862,42.74613l.28064-463.69053H-.19812Z" transform="translate(0.19813 -190.92385)"/></svg>